<?xml version="1.0" encoding="UTF-8"?>
<svg width="115px" height="93px" viewBox="0 0 115 93" version="1.1" xmlns="http://www.w3.org/2000/svg" xmlns:xlink="http://www.w3.org/1999/xlink">
    <g id="Page-1" stroke="none" stroke-width="1" fill="none" fill-rule="evenodd">
        <path d="M3.02148438,61.7929688 L7.87304688,61.7929688 L7.87304688,81.8847656 C7.87304688,82.2832051 7.98730354,82.5878896 8.21582031,82.7988281 C8.44433708,83.0097667 8.81054436,83.1152344 9.31445312,83.1152344 C9.5488293,83.1152344 9.75097571,83.1005861 9.92089844,83.0712891 C10.0908212,83.041992 10.3105455,82.9980472 10.5800781,82.9394531 L10.9667969,87.0703125 C10.6386702,87.1171877 10.2871113,87.1640623 9.91210938,87.2109375 C9.59570154,87.2460939 9.22949427,87.2783202 8.81347656,87.3076172 C8.39745886,87.3369142 7.9667991,87.3515625 7.52148438,87.3515625 C6.83007467,87.3515625 6.20898713,87.2636728 5.65820312,87.0878906 C5.10741912,86.9121085 4.63574415,86.6513689 4.24316406,86.3056641 C3.85058397,85.9599592 3.54882918,85.5292995 3.33789062,85.0136719 C3.12695207,84.4980443 3.02148438,83.900394 3.02148438,83.2207031 L3.02148438,61.7929688 Z M18.8502342,87 L13.9986717,87 L13.9986717,68.1738281 L18.8502342,68.1738281 L18.8502342,87 Z M13.488906,63.234375 C13.488906,62.8359355 13.5650772,62.4580096 13.7174217,62.1005859 C13.8697662,61.7431623 14.0777719,61.4326185 14.3414451,61.1689453 C14.6051183,60.9052721 14.9127324,60.6972664 15.2642967,60.5449219 C15.6158609,60.3925774 15.9967165,60.3164062 16.4068748,60.3164062 C16.8053143,60.3164062 17.1832402,60.3925774 17.5406639,60.5449219 C17.8980875,60.6972664 18.2086313,60.9052721 18.4723045,61.1689453 C18.7359777,61.4326185 18.9439834,61.7431623 19.0963279,62.1005859 C19.2486724,62.4580096 19.3248435,62.8359355 19.3248435,63.234375 C19.3248435,63.6445333 19.2486724,64.0253889 19.0963279,64.3769531 C18.9439834,64.7285174 18.7359777,65.0361315 18.4723045,65.2998047 C18.2086313,65.5634779 17.8980875,65.7714836 17.5406639,65.9238281 C17.1832402,66.0761726 16.8053143,66.1523438 16.4068748,66.1523438 C15.9967165,66.1523438 15.6158609,66.0761726 15.2642967,65.9238281 C14.9127324,65.7714836 14.6051183,65.5634779 14.3414451,65.2998047 C14.0777719,65.0361315 13.8697662,64.7285174 13.7174217,64.3769531 C13.5650772,64.0253889 13.488906,63.6445333 13.488906,63.234375 Z M30.3371871,81.3925781 C30.3371871,81.6152355 30.3664837,81.8261709 30.4250777,82.0253906 C30.4836718,82.2246104 30.5862098,82.3974602 30.7326949,82.5439453 C30.87918,82.6904304 31.0871858,82.8046871 31.3567183,82.8867188 C31.6262509,82.9687504 31.9719506,83.0097656 32.3938277,83.0097656 C32.5696099,83.0097656 32.7688266,83.0009767 32.991484,82.9833984 C33.2141413,82.9658202 33.4367954,82.9453126 33.6594527,82.921875 C33.8821101,82.8984374 34.0901158,82.8691408 34.2834762,82.8339844 L34.7668746,82.7460938 L35.2063277,87.0351562 C34.7492942,87.0937503 34.2746896,87.1464841 33.7824996,87.1933594 C33.3606225,87.2402346 32.8918772,87.2783202 32.3762496,87.3076172 C31.860622,87.3369142 31.3391429,87.3515625 30.8117965,87.3515625 C29.1360068,87.3515625 27.8293793,86.9707069 26.8918746,86.2089844 C25.9543699,85.4472618 25.4856246,84.2343833 25.4856246,82.5703125 L25.4856246,72.3925781 L22.0930465,72.3925781 L22.0930465,68.1738281 L25.4856246,68.1738281 L25.4856246,62.8476562 L30.3371871,61.546875 L30.3371871,68.1738281 L35.2766402,68.1738281 L35.2766402,72.3925781 L30.3371871,72.3925781 L30.3371871,81.3925781 Z M42.7557807,79.265625 C42.8378123,79.8281278 43.0165215,80.3437477 43.2919135,80.8125 C43.5673055,81.2812523 43.9159348,81.6826155 44.3378119,82.0166016 C44.759689,82.3505876 45.2460123,82.6113272 45.7967963,82.7988281 C46.3475803,82.9863291 46.9335119,83.0800781 47.5546088,83.0800781 C48.2694561,83.0800781 49.0428859,82.9423842 49.8749213,82.6669922 C50.7069567,82.3916002 51.4686678,81.990237 52.1600775,81.4628906 L54.4979682,84.8730469 C53.6190575,85.6113318 52.5409433,86.2089821 51.2635932,86.6660156 C49.986243,87.1230492 48.6268816,87.3515625 47.1854682,87.3515625 C45.8846804,87.3515625 44.6600833,87.1289085 43.51164,86.6835938 C42.3631968,86.238279 41.358324,85.5937542 40.4969916,84.75 C39.6356592,83.9062458 38.9559785,82.8808654 38.4579291,81.6738281 C37.9598797,80.4667908 37.7108588,79.1074294 37.7108588,77.5957031 C37.7108588,76.2128837 37.9305831,74.9238341 38.3700385,73.7285156 C38.8094938,72.5331971 39.424722,71.4960981 40.2157416,70.6171875 C41.0067612,69.7382769 41.9530408,69.0498072 43.0546088,68.5517578 C44.1561768,68.0537084 45.3749146,67.8046875 46.7108588,67.8046875 C47.9530525,67.8046875 49.1073378,68.0302712 50.1737494,68.4814453 C51.240161,68.9326194 52.165933,69.5654256 52.9510932,70.3798828 C53.7362533,71.19434 54.3514815,72.1699162 54.7967963,73.3066406 C55.242111,74.4433651 55.464765,75.6972588 55.464765,77.0683594 L55.464765,79.265625 L42.7557807,79.265625 Z M46.6932807,72.0234375 C45.6503067,72.0234375 44.7684796,72.3720668 44.0477728,73.0693359 C43.3270661,73.766605 42.908125,74.607417 42.7909369,75.5917969 L50.3846869,75.5917969 C50.3612493,74.5956981 49.9979717,73.7519566 49.2948432,73.0605469 C48.5917146,72.3691372 47.7245358,72.0234375 46.6932807,72.0234375 Z M57.5474211,73.5703125 L65.1060148,73.5703125 L65.1060148,77.9296875 L57.5474211,77.9296875 L57.5474211,73.5703125 Z M74.3605459,79.3535156 C73.7628866,79.4472661 73.2824227,79.6552718 72.9191396,79.9775391 C72.5558566,80.2998063 72.3742178,80.7363254 72.3742178,81.2871094 C72.3742178,81.8964874 72.5968718,82.4208962 73.0421865,82.8603516 C73.4875012,83.2998069 74.1437447,83.5195312 75.0109365,83.5195312 C75.9250036,83.5195312 76.6456995,83.255862 77.1730459,82.7285156 C77.7003923,82.2011692 77.9640615,81.5039106 77.9640615,80.6367188 L77.9640615,78.7382812 L74.3605459,79.3535156 Z M78.7550771,85.2246094 C78.5558574,85.4472667 78.3126957,85.6845691 78.0255849,85.9365234 C77.7384741,86.1884778 77.3986338,86.4169912 77.0060537,86.6220703 C76.6134736,86.8271495 76.1535173,86.9999993 75.6261709,87.140625 C75.0988245,87.2812507 74.5070335,87.3515625 73.8507803,87.3515625 C72.9132756,87.3515625 72.0490264,87.2021499 71.2580068,86.9033203 C70.4669872,86.6044907 69.7726582,86.1855496 69.174999,85.6464844 C68.5773398,85.1074192 68.1085944,84.483402 67.768749,83.7744141 C67.4289036,83.0654261 67.2589834,82.294926 67.2589834,81.4628906 C67.2589834,79.9511643 67.7277287,78.7148486 68.6652334,77.7539062 C69.6027381,76.7929639 70.897647,76.1894544 72.549999,75.9433594 L77.9640615,75.1523438 L77.9640615,74.8007812 C77.9640615,73.957027 77.7062516,73.289065 77.190624,72.796875 C76.6749964,72.304685 75.8371142,72.0585938 74.6769521,72.0585938 C74.196481,72.0585938 73.7101577,72.1142573 73.2179678,72.2255859 C72.7257778,72.3369146 72.2541028,72.4628899 71.8029287,72.6035156 C71.3517546,72.7441413 70.9328134,72.9052725 70.5460928,73.0869141 C70.1593721,73.2685556 69.8195317,73.4296868 69.5265615,73.5703125 L67.628124,69.8613281 C68.7062544,69.2636689 69.9044846,68.7714863 71.2228506,68.3847656 C72.5412165,67.9980449 73.9093669,67.8046875 75.3273428,67.8046875 C76.1945346,67.8046875 77.0705024,67.8955069 77.9552724,68.0771484 C78.8400425,68.25879 79.6427688,68.5898413 80.3634756,69.0703125 C81.0841823,69.5507837 81.6730436,70.2040974 82.1300771,71.0302734 C82.5871107,71.8564494 82.815624,72.9081967 82.815624,74.1855469 L82.815624,81.9199219 C82.815624,82.4707059 82.9591773,82.8779284 83.2462881,83.1416016 C83.5333989,83.4052748 83.9289027,83.6484364 84.4328115,83.8710938 L82.2355459,87.3515625 C81.3449164,87.257812 80.6300798,87.026369 80.0910146,86.6572266 C79.5519494,86.2880841 79.1066414,85.8105498 78.7550771,85.2246094 Z M92.070155,92.9414062 L87.2185925,92.9414062 L87.2185925,68.1738281 L92.070155,68.1738281 L92.070155,69.7910156 C92.5975014,69.2402316 93.2478856,68.7714863 94.0213269,68.3847656 C94.7947683,67.9980449 95.7322589,67.8046875 96.8338269,67.8046875 C98.0760206,67.8046875 99.203939,68.0537084 100.217616,68.5517578 C101.231293,69.0498072 102.101401,69.7353472 102.827968,70.6083984 C103.554534,71.4814497 104.117028,72.515619 104.515468,73.7109375 C104.913907,74.906256 105.113124,76.2011649 105.113124,77.5957031 C105.113124,78.9902413 104.908048,80.2851503 104.497889,81.4804688 C104.087731,82.6757872 103.513518,83.7070269 102.775233,84.5742188 C102.036948,85.4414106 101.152191,86.1210913 100.120936,86.6132812 C99.0896811,87.1054712 97.9529738,87.3515625 96.71078,87.3515625 C96.159996,87.3515625 95.6590245,87.3017583 95.2078504,87.2021484 C94.7566762,87.1025386 94.3435944,86.9648446 93.9685925,86.7890625 C93.5935907,86.6132804 93.247891,86.4052746 92.9314832,86.1650391 C92.6150753,85.9248035 92.3279688,85.6640639 92.070155,85.3828125 L92.070155,92.9414062 Z M91.92953,79.3359375 C91.92953,79.8398463 92.0203495,80.3056619 92.201991,80.7333984 C92.3836325,81.161135 92.6443721,81.5332015 92.9842175,81.8496094 C93.324063,82.1660172 93.7312855,82.4121085 94.2058972,82.5878906 C94.680509,82.7636728 95.2166364,82.8515625 95.8142957,82.8515625 C96.5057054,82.8515625 97.1180039,82.7255872 97.6512097,82.4736328 C98.1844155,82.2216784 98.6326532,81.8671898 98.9959363,81.4101562 C99.3592194,80.9531227 99.6346072,80.4111359 99.8221082,79.7841797 C100.009609,79.1572234 100.103358,78.4687538 100.103358,77.71875 L100.103358,77.4902344 C100.103358,76.7402306 100.009609,76.0488313 99.8221082,75.4160156 C99.6346072,74.7832 99.3592194,74.2353539 98.9959363,73.7724609 C98.6326532,73.309568 98.1844155,72.94922 97.6512097,72.6914062 C97.1180039,72.4335925 96.5057054,72.3046875 95.8142957,72.3046875 C95.2166364,72.3046875 94.680509,72.3925772 94.2058972,72.5683594 C93.7312855,72.7441415 93.324063,72.9902328 92.9842175,73.3066406 C92.6443721,73.6230485 92.3836325,73.9980447 92.201991,74.4316406 C92.0203495,74.8652365 91.92953,75.3339819 91.92953,75.8378906 L91.92953,79.3359375 Z M113.559061,87 L108.707499,87 L108.707499,68.1738281 L113.559061,68.1738281 L113.559061,87 Z M108.197733,63.234375 C108.197733,62.8359355 108.273904,62.4580096 108.426249,62.1005859 C108.578593,61.7431623 108.786599,61.4326185 109.050272,61.1689453 C109.313945,60.9052721 109.621559,60.6972664 109.973124,60.5449219 C110.324688,60.3925774 110.705543,60.3164062 111.115702,60.3164062 C111.514141,60.3164062 111.892067,60.3925774 112.249491,60.5449219 C112.606914,60.6972664 112.917458,60.9052721 113.181131,61.1689453 C113.444805,61.4326185 113.65281,61.7431623 113.805155,62.1005859 C113.957499,62.4580096 114.03367,62.8359355 114.03367,63.234375 C114.03367,63.6445333 113.957499,64.0253889 113.805155,64.3769531 C113.65281,64.7285174 113.444805,65.0361315 113.181131,65.2998047 C112.917458,65.5634779 112.606914,65.7714836 112.249491,65.9238281 C111.892067,66.0761726 111.514141,66.1523438 111.115702,66.1523438 C110.705543,66.1523438 110.324688,66.0761726 109.973124,65.9238281 C109.621559,65.7714836 109.313945,65.5634779 109.050272,65.2998047 C108.786599,65.0361315 108.578593,64.7285174 108.426249,64.3769531 C108.273904,64.0253889 108.197733,63.6445333 108.197733,63.234375 Z" id="lite-api" fill="#000000"></path>
        <path d="M43.8753709,15.4999977 L32.0467429,4.33358242 C31.7898636,4.10084886 31.6400677,3.76488155 31.6400677,3.42086957 C31.6400677,3.07685758 31.7898636,2.74089027 32.0389582,2.5153615 L33.7914526,0.858732109 C34.0218445,0.631020283 34.3503685,0.5 34.6659724,0.5 C34.974424,0.5 35.2839101,0.625631703 35.5247228,0.843808887 L35.5321171,0.850644946 L50.0933247,14.5872871 C50.3502041,14.8200207 50.5,15.155988 50.5,15.5 C50.5,15.844012 50.3502041,16.1799793 50.100719,16.4058768 L35.5404922,30.1412679 C35.3077724,30.3712806 34.99068,30.5 34.6659724,30.5 C34.3482391,30.5 34.051185,30.3772224 33.7994373,30.1489863 L32.0467429,28.4918433 C31.7898636,28.2591097 31.6400677,27.9231424 31.6400677,27.5791304 C31.6400677,27.2351185 31.7898636,26.8991511 32.0392253,26.6733701 L43.8753709,15.4999977 Z" id="Path" stroke="#000000" fill="#000000" fill-rule="nonzero" stroke-linejoin="round"></path>
        <path d="M7.12462912,15.5000023 L18.9532571,26.6664176 C19.2101364,26.8991511 19.3599323,27.2351185 19.3599323,27.5791304 C19.3599323,27.9231424 19.2101364,28.2591097 18.9610418,28.4846385 L17.2085474,30.1412679 C16.9758276,30.3712806 16.6587351,30.5 16.3340276,30.5 C16.025576,30.5 15.7160899,30.3743683 15.4678829,30.1493551 L0.906675257,16.4127129 C0.649795915,16.1799793 0.5,15.844012 0.5,15.5 C0.5,15.155988 0.649795915,14.8200207 0.899280999,14.5941232 L15.4595078,0.858732109 C15.6898997,0.631020283 16.0184237,0.5 16.3340276,0.5 C16.6424792,0.5 16.9519652,0.625631703 17.2005627,0.851013672 L18.9532571,2.50815671 C19.2101364,2.74089027 19.3599323,3.07685758 19.3599323,3.42086957 C19.3599323,3.76488155 19.2101364,4.10084886 18.9607747,4.32662993 L7.12462912,15.5000023 Z" id="Path" stroke="#000000" fill="#000000" fill-rule="nonzero" stroke-linejoin="round"></path>
    </g>
</svg>
